<svg width="80" height="80" viewBox="0 0 80 80" fill="none" xmlns="http://www.w3.org/2000/svg">
<path d="M71.8175 8.1814H13.6357L8.18115 12.6527M71.8175 8.1814L67.2721 12.6527M71.8175 8.1814V53.6359L67.2721 60.9087M8.18115 12.6527V71.8178H18.1812M8.18115 12.6527H37.7266H67.2721M67.2721 12.6527V60.9087M18.1812 71.8178V60.9087H24.5448M18.1812 71.8178L24.5448 66.3632V60.9087M67.2721 60.9087H24.5448" stroke="black" stroke-width="1.81818"/>
<path d="M18.2421 32.2246V23.2871H22.5171C23.4338 23.2871 24.1838 23.5163 24.7671 23.9746C25.3505 24.4246 25.6421 25.0538 25.6421 25.8621C25.6421 26.9454 25.1255 27.6663 24.0921 28.0246V28.0621C24.8421 28.3121 25.2755 28.8579 25.3921 29.6996C25.4421 29.9913 25.4755 30.3538 25.4921 30.7871C25.5171 31.2121 25.5463 31.5329 25.5796 31.7496C25.613 31.9579 25.6755 32.0788 25.7671 32.1121V32.2246H23.6171C23.5505 32.1829 23.4963 32.0621 23.4546 31.8621C23.4213 31.6621 23.3921 31.3788 23.3671 31.0121C23.3421 30.6454 23.313 30.3579 23.2796 30.1496C23.163 29.2996 22.6671 28.8746 21.7921 28.8746H20.4546V32.2246H18.2421ZM20.4546 27.2371H22.1171C22.5505 27.2371 22.8796 27.1413 23.1046 26.9496C23.3296 26.7579 23.4421 26.4913 23.4421 26.1496C23.4421 25.8163 23.3338 25.5496 23.1171 25.3496C22.9005 25.1413 22.5838 25.0371 22.1671 25.0371H20.4546V27.2371ZM26.6284 32.2246V23.2871H33.4034V25.1121H28.8409V26.7121H32.7534V28.4371H28.8409V30.3496H33.4784V32.2246H26.6284ZM34.4775 32.2246V23.2871H36.7025L39.3525 27.7746L39.965 28.9121H39.99C39.9733 28.1954 39.965 27.7329 39.965 27.5246V23.2871H42.1275V32.2246H39.9025L37.2775 27.7996L36.64 26.5996H36.615C36.6317 27.3663 36.64 27.8538 36.64 28.0621V32.2246H34.4775ZM45.5645 30.3621H46.8645C47.5812 30.3621 48.127 30.1454 48.502 29.7121C48.877 29.2704 49.0645 28.6371 49.0645 27.8121C49.0645 26.9871 48.8728 26.3371 48.4895 25.8621C48.1062 25.3788 47.5728 25.1371 46.8895 25.1371H45.5645V30.3621ZM43.352 32.2246V23.2871H47.1645C48.4062 23.2871 49.4062 23.6996 50.1645 24.5246C50.9228 25.3496 51.302 26.4454 51.302 27.8121C51.302 29.4204 50.7853 30.6204 49.752 31.4121C49.027 31.9538 48.1187 32.2246 47.027 32.2246H43.352ZM53.7726 32.2246V28.9246L50.7476 23.2871H53.1601L54.3101 25.5996L54.8976 26.9621H54.9226C55.1309 26.4621 55.3351 26.0079 55.5351 25.5996L56.6726 23.2871H59.0101L55.9851 28.9246V32.2246H53.7726ZM19.776 47.2246V43.9246L16.751 38.2871H19.1635L20.3135 40.5996L20.901 41.9621H20.926C21.1344 41.4621 21.3385 41.0079 21.5385 40.5996L22.676 38.2871H25.0135L21.9885 43.9246V47.2246H19.776ZM29.3271 47.3871C28.0938 47.3871 27.1604 47.0996 26.5271 46.5246C25.8938 45.9496 25.5771 45.1329 25.5771 44.0746V38.2871H27.7896V44.1496C27.7896 45.1246 28.3021 45.6121 29.3271 45.6121C29.8188 45.6121 30.1938 45.4788 30.4521 45.2121C30.7104 44.9371 30.8396 44.5704 30.8396 44.1121V38.2871H33.0521V44.0746C33.0521 45.1246 32.7354 45.9413 32.1021 46.5246C31.4771 47.0996 30.5521 47.3871 29.3271 47.3871ZM36.4214 45.3621H37.7214C38.4381 45.3621 38.9839 45.1454 39.3589 44.7121C39.7339 44.2704 39.9214 43.6371 39.9214 42.8121C39.9214 41.9871 39.7298 41.3371 39.3464 40.8621C38.9631 40.3788 38.4298 40.1371 37.7464 40.1371H36.4214V45.3621ZM34.2089 47.2246V38.2871H38.0214C39.2631 38.2871 40.2631 38.6996 41.0214 39.5246C41.7798 40.3496 42.1589 41.4454 42.1589 42.8121C42.1589 44.4204 41.6423 45.6204 40.6089 46.4121C39.8839 46.9538 38.9756 47.2246 37.8839 47.2246H34.2089ZM43.0224 47.2246V38.2871H45.2349V41.6746H48.3724V38.2871H50.5849V47.2246H48.3724V43.4996H45.2349V47.2246H43.0224ZM51.1865 47.2246L54.399 38.2871H56.674L59.899 47.2246H57.574L57.049 45.6121H53.924L53.4115 47.2246H51.1865ZM54.4365 44.0246H56.5365L55.8615 41.8621L55.5115 40.5996H55.4865C55.3448 41.1329 55.224 41.5538 55.124 41.8621L54.4365 44.0246Z" fill="black"/>
</svg>
